<?xml version="1.0" standalone="no"?>
<!DOCTYPE svg PUBLIC "-//W3C//DTD SVG 20010904//EN"
 "http://www.w3.org/TR/2001/REC-SVG-20010904/DTD/svg10.dtd">
<svg version="1.0" xmlns="http://www.w3.org/2000/svg"
 width="294.000000pt" height="294.000000pt" viewBox="0 0 294.000000 294.000000"
 preserveAspectRatio="xMidYMid meet">
<metadata>
Created by potrace 1.11, written by Peter Selinger 2001-2013
</metadata>
<g transform="translate(0.000000,294.000000) scale(0.100000,-0.100000)"
fill="#000000" stroke="none">
<path d="M0 1470 l0 -1470 1470 0 1470 0 0 1470 0 1470 -1470 0 -1470 0 0
-1470z m523 813 l-323 -3 0 -45 0 -45 413 0 412 1 -35 31 -35 31 33 -19 c19
-11 43 -32 55 -49 12 -16 27 -36 34 -43 20 -20 16 -102 -6 -136 -21 -31 -68
-66 -90 -66 -11 0 -11 3 0 17 13 15 12 15 -6 6 -11 -6 -27 -12 -35 -15 -10 -3
3 -14 35 -31 63 -32 125 -97 135 -143 18 -79 -40 -163 -137 -200 -43 -16 -85
-18 -393 -19 l-345 -1 320 5 c176 4 304 9 285 12 -23 4 -14 6 25 4 39 -2 53 0
40 5 -11 5 -174 9 -362 9 -264 1 -342 -2 -346 -11 -3 -7 -6 150 -6 350 l-1
362 328 -2 327 -3 -322 -2z m1809 -340 l3 -348 5 340 5 340 3 -362 2 -363
-102 2 -103 2 84 5 c54 4 86 10 89 19 3 9 -21 12 -96 12 -71 0 -102 -4 -105
-12 -3 -7 -6 150 -6 350 l-1 362 110 0 110 0 2 -347z m400 -5 l3 -353 2 335
c2 202 7 338 13 344 7 7 10 -114 10 -352 l0 -362 -102 2 -103 2 83 3 c64 3 82
7 82 18 0 20 -186 22 -193 3 -3 -7 -6 150 -6 350 l-1 362 105 0 105 0 2 -352z
m-1839 335 c-7 -2 -19 -2 -25 0 -7 3 -2 5 12 5 14 0 19 -2 13 -5z m47 -13 c8
-5 11 -10 5 -10 -5 0 -17 5 -25 10 -8 5 -10 10 -5 10 6 0 17 -5 25 -10z m834
-180 c43 -14 76 -32 98 -54 78 -78 78 -80 78 -290 l0 -186 -107 2 -108 2 88 3
c68 3 87 7 87 18 0 12 -18 15 -95 15 -60 0 -95 -4 -95 -11 0 -5 -5 -7 -11 -4
-6 4 -8 14 -5 22 4 9 1 13 -6 11 -7 -3 -13 -13 -13 -24 0 -40 -174 -57 -287
-28 -153 39 -221 106 -203 200 17 91 122 144 284 144 83 0 184 -20 206 -41 5
-5 13 -9 17 -9 11 0 10 58 -2 79 -16 31 -80 50 -166 49 -56 -1 -70 -3 -49 -8
28 -7 28 -8 5 -9 -14 -1 -52 -12 -85 -26 -37 -16 -61 -21 -65 -14 -4 5 -11 9
-16 7 -15 -5 -87 80 -81 96 7 19 139 65 217 76 92 13 238 3 314 -20z m-1181
-717 l-323 -3 0 -45 0 -45 410 0 c226 0 410 3 410 6 0 3 -10 15 -22 25 -20 17
-20 19 -3 10 50 -24 105 -105 105 -153 0 -36 -32 -89 -69 -114 -42 -28 -71
-33 -51 -8 12 13 10 14 -13 3 -34 -15 -34 -25 -1 -33 34 -9 141 -115 150 -150
16 -66 -30 -147 -106 -186 -67 -34 -151 -41 -475 -38 l-310 3 325 4 c199 2
309 7 285 12 -33 6 -28 7 25 4 40 -2 57 0 45 5 -11 5 -174 9 -362 9 -264 1
-342 -2 -346 -11 -3 -7 -6 150 -6 350 l-1 362 328 -2 327 -3 -322 -2z m370
-10 c-7 -2 -19 -2 -25 0 -7 3 -2 5 12 5 14 0 19 -2 13 -5z m1422 -83 c89 0 94
1 98 23 2 12 5 -11 6 -51 1 -52 5 -72 14 -71 6 1 42 1 80 0 l67 -1 2 -52 c1
-51 2 -51 5 -10 6 64 23 50 23 -19 l0 -61 -95 4 -95 4 0 -111 c0 -144 9 -159
87 -153 50 4 56 3 65 -18 6 -13 15 -21 19 -18 9 5 11 0 13 -28 1 -7 7 -19 14
-26 17 -19 15 -30 -10 -43 -29 -16 -213 -25 -221 -12 -5 9 76 21 180 27 12 0
18 5 14 9 -4 4 -72 6 -152 5 -131 -3 -140 -4 -99 -14 30 -8 37 -12 21 -13 -38
-2 -104 35 -124 68 -14 24 -17 55 -17 180 l0 152 -34 -7 c-19 -3 -48 -3 -65 1
-31 7 -31 7 -31 71 l0 64 65 0 65 0 1 73 c1 39 4 62 6 50 4 -22 9 -23 98 -23z
m135 -30 c0 -27 -4 -50 -10 -50 -5 0 -10 23 -10 50 0 28 5 50 10 50 6 0 10
-22 10 -50z m-719 -64 c42 -8 101 -26 132 -41 55 -27 162 -126 150 -139 -4 -3
-1 -6 6 -6 8 0 11 -6 7 -16 -3 -8 -2 -13 3 -10 27 17 28 -103 2 -160 -55 -120
-216 -193 -402 -181 -210 14 -356 82 -408 191 -27 56 -28 143 -2 195 42 82
141 144 264 166 94 17 155 17 248 1z m719 -262 c0 -74 -4 -113 -10 -109 -19
11 -12 225 7 225 2 0 3 -52 3 -116z"/>
<path d="M430 2080 l0 -70 143 -1 c78 -1 153 0 167 0 40 3 75 34 78 70 3 28
-1 33 -40 51 -37 17 -66 20 -195 20 l-153 0 0 -70z m153 53 l-133 -4 -2 -57
-2 -57 -3 49 c-7 78 -10 76 139 74 l133 -2 -132 -3z"/>
<path d="M1019 1993 l-24 -28 28 24 c25 23 32 31 24 31 -2 0 -14 -12 -28 -27z"/>
<path d="M430 1783 l0 -73 168 0 c201 0 235 10 240 72 5 63 -16 70 -228 72
l-180 1 0 -72z m17 -25 c-2 -18 -4 -4 -4 32 0 36 2 50 4 33 2 -18 2 -48 0 -65z"/>
<path d="M1092 1765 c0 -16 2 -22 5 -12 2 9 2 23 0 30 -3 6 -5 -1 -5 -18z"/>
<path d="M2120 2235 l0 -45 100 0 100 0 0 45 0 45 -100 0 -100 0 0 -45z"/>
<path d="M2530 2235 l0 -45 95 0 95 0 0 45 0 45 -95 0 -95 0 0 -45z"/>
<path d="M1428 1963 c7 -3 16 -2 19 1 4 3 -2 6 -13 5 -11 0 -14 -3 -6 -6z"/>
<path d="M1380 1950 c-8 -5 -10 -10 -5 -10 6 0 17 5 25 10 8 5 11 10 5 10 -5
0 -17 -5 -25 -10z"/>
<path d="M1921 1934 c0 -11 3 -14 6 -6 3 7 2 16 -1 19 -3 4 -6 -2 -5 -13z"/>
<path d="M1924 1750 c0 -91 2 -128 3 -82 2 45 2 119 0 165 -1 45 -3 8 -3 -83z"/>
<path d="M1530 1793 c21 -4 18 -7 -25 -21 -31 -11 -54 -26 -61 -39 -6 -13 -14
-20 -17 -16 -11 11 -8 22 13 43 11 11 16 20 10 20 -19 0 -44 -51 -34 -69 32
-51 170 -68 252 -31 35 16 42 24 42 48 0 39 -46 61 -137 67 -38 2 -57 1 -43
-2z"/>
<path d="M1478 1783 c7 -3 16 -2 19 1 4 3 -2 6 -13 5 -11 0 -14 -3 -6 -6z"/>
<path d="M1330 1586 c0 -8 102 -24 180 -29 51 -4 67 -2 50 4 -20 7 -15 8 19 5
32 -3 41 -2 30 5 -10 8 -6 9 16 5 22 -5 26 -4 15 4 -14 9 -310 15 -310 6z"/>
<path d="M500 1160 l0 -70 143 -1 c173 -1 185 -1 219 17 57 30 41 91 -30 112
-22 7 -102 12 -186 12 l-146 0 0 -70z m163 53 l-141 -4 5 -38 c3 -21 0 -47 -6
-57 -8 -15 -10 -8 -11 37 0 31 3 59 7 62 3 4 70 6 147 5 l141 -2 -142 -3z"/>
<path d="M1142 1180 c0 -19 2 -27 5 -17 2 9 2 25 0 35 -3 9 -5 1 -5 -18z"/>
<path d="M500 863 l0 -73 165 0 c181 0 226 10 246 53 8 18 8 30 -1 47 -22 41
-63 49 -243 47 l-167 -2 0 -72z m29 13 c1 -30 -3 -57 -9 -61 -6 -4 -10 15 -10
54 0 76 16 81 19 7z"/>
<path d="M1161 824 c0 -11 3 -14 6 -6 3 7 2 16 -1 19 -3 4 -6 -2 -5 -13z"/>
<path d="M1109 723 c-13 -16 -12 -17 4 -4 16 13 21 21 13 21 -2 0 -10 -8 -17
-17z"/>
<path d="M2573 633 c9 -2 23 -2 30 0 6 3 -1 5 -18 5 -16 0 -22 -2 -12 -5z"/>
<path d="M1635 1041 l30 -7 -34 -7 c-46 -10 -111 -76 -111 -114 0 -16 -5 -34
-11 -40 -17 -17 16 -59 65 -83 56 -27 155 -27 213 0 76 34 105 119 63 187 -29
48 -72 66 -165 68 -44 1 -66 -1 -50 -4z"/>
<path d="M1557 1021 c-29 -19 -62 -59 -55 -67 3 -2 10 7 17 20 7 13 29 33 49
44 21 12 33 22 27 22 -5 0 -23 -8 -38 -19z"/>
<path d="M1492 910 c0 -19 2 -27 5 -17 2 9 2 25 0 35 -3 9 -5 1 -5 -18z"/>
<path d="M2019 743 l-34 -38 38 34 c34 33 42 41 34 41 -2 0 -19 -17 -38 -37z"/>
<path d="M1954 694 c-18 -14 -18 -15 4 -4 12 6 22 13 22 15 0 8 -5 6 -26 -11z"/>
<path d="M1524 660 c27 -8 80 -14 226 -25 44 -3 49 -2 25 5 -24 8 -19 9 25 5
40 -2 49 -1 35 6 -15 7 -12 8 15 4 25 -4 31 -2 20 5 -9 5 -93 9 -195 9 -119 0
-170 -4 -151 -9z"/>
</g>
</svg>
